<svg xmlns="http://www.w3.org/2000/svg" width="150" height="150" viewBox="0 0 150 150">
    <g fill="none" fill-rule="evenodd">
        <path fill="#FAFAFA" d="M0 0h150v150H0z"/>
        <g fill="#E1E1E1">
            <path d="M68.117 73.667c-2.254 0-4.082 1.836-4.082 4.103V89.74c0
            2.265 1.828 4.103 4.082 4.103h.608c2.254 0 4.082-1.837
            4.082-4.103V77.77c0-2.266-1.828-4.103-4.082-4.103h-.608zM81.275
            93.842h.608c2.254 0 4.082-1.85 4.082-4.13V70.78c0-2.28-1.828-4.13-4.082-4.13h-.608c-2.254
            0-4.082 1.848-4.082 4.13v18.932c0 2.28 1.828 4.13 4.082 4.13zM95.918 57h-.609c-2.253
            0-4.08 1.85-4.08 4.132V89.71c0 2.281 1.827 4.132 4.08 4.132h.609c2.255 0 4.082-1.85
            4.082-4.132V61.13c0-2.28-1.827-4.13-4.082-4.13zM59.65
            89.836v-6.9c0-2.212-1.83-4.006-4.083-4.006h-.608c-2.254 0-4.082 1.793-4.082
            4.006v6.9c0 2.212 1.829 4.006 4.082 4.006h.608c2.254 0 4.082-1.794 4.082-4.006zM52.21
            74.164l3.053-3.053 3.052 3.053a1.294 1.294 0 1 0 1.832-1.83l-3.052-3.053 3.052-3.053a1.295
            1.295 0 1 0-1.832-1.83l-3.052 3.051-3.052-3.052a1.294 1.294 0 1 0-1.832 1.83l3.053 3.054-3.052
            3.052a1.295 1.295 0 0 0 1.83 1.831z"/>
        </g>
    </g>
</svg>
